<svg height="15" width="80" xmlns="http://www.w3.org/2000/svg" xmlns:xlink="http://www.w3.org/1999/xlink"><clipPath id="a"><path d="m171.99832 239.1203h20.614058v12.483703h-20.614058z"/></clipPath><g transform="matrix(.9875019 0 0 .9333518 -323.90064 -411.87964)"><g transform="translate(158 204)"><path d="m170.5 237.86218h80v15h-80z" fill="#fff" stroke="#000" stroke-width="1.041618"/><path d="m172 239.36218h77v12h-77z"/><path d="m171.99996 239.37505v12h20.33478c1.30865-1.75031 2.19178-3.78448 2.19178-6 0-2.20074-.86793-4.25715-2.16053-6z" fill="#abb1aa"/><g clip-path="url(#a)" transform="matrix(.9612533 0 0 .9612533 6.834157 9.506999)"><path cx="296.35416" cy="264.3577" d="m190.06417 245.36206c.0025 3.89199-3.15091 7.04866-7.04264 7.05117-3.89174.00249-7.04891-3.15067-7.05117-7.04263 0-.00277 0-.00553 0-.00854-.00226-3.89199 3.1509-7.04866 7.04264-7.05093 3.89224-.00249 7.04891 3.15068 7.05117 7.04267z" fill="#fff" rx="22.939548" ry="22.939548" type="arc"/><path d="m188.74576 239.62226c1.56267 1.56266 2.34412 3.47643 2.34412 5.7398 0 2.26386-.76791 4.15707-2.30373 5.67959-1.62988 1.60356-3.5562 2.40507-5.77893 2.40507-2.1959 0-4.08885-.795-5.67835-2.38498-1.58975-1.58976-2.38451-3.48948-2.38451-5.69968 0-2.20971.79476-4.12298 2.38451-5.7398 1.54912-1.56316 3.44207-2.34462 5.67835-2.34462 2.26338 0 4.1759.78145 5.73854 2.34462zm-10.36483 1.05129c-1.32115 1.33445-1.98148 2.89761-1.98148 4.69074 0 1.79265.65381 3.34253 1.96117 4.64964 1.3076 1.3076 2.86425 1.96116 4.67043 1.96116 1.80619 0 3.37611-.66007 4.71056-1.98097 1.26699-1.22687 1.90073-2.76945 1.90073-4.62983 0-1.8463-.64403-3.41345-1.93133-4.70075-1.28705-1.28705-2.84695-1.93084-4.67996-1.93084-1.83301.00001-3.38338.64705-4.65012 1.94085zm3.47668 3.90204c-.20188-.44014-.50407-.66034-.9071-.66034-.71249 0-1.06861.47976-1.06861 1.43879 0 .95924.35612 1.43851 1.06861 1.43851.47049 0 .80654-.23347 1.00818-.70144l.9876.5259c-.47074.83638-1.17695 1.25467-2.11866 1.25467-.72627 0-1.3081-.22269-1.74498-.66759-.43763-.44539-.65581-1.05932-.65581-1.84203 0-.76893.2252-1.37935.67587-1.8315.45067-.45218 1.01192-.67816 1.68479-.67816.99538 0 1.70811.39225 2.13897 1.17595zm4.64637 0c-.20214-.44014-.49831-.66034-.88881-.66034-.72678 0-1.09043.47976-1.09043 1.43879 0 .95924.36365 1.43851 1.09043 1.43851.47125 0 .80127-.23347.98963-.70144l1.00967.5259c-.46999.83638-1.17521 1.25467-2.11516 1.25467-.72528 0-1.30585-.22269-1.74248-.66759-.43587-.44539-.65429-1.05932-.65429-1.84203 0-.76893.22168-1.37935.66483-1.8315.44289-.45218 1.00667-.67816 1.69183-.67816.99362 0 1.70535.39225 2.1347 1.17595z"/></g></g><path d="m357.4197 448.68503c.24548.00001.43161-.05357.5584-.16075.12678-.10716.19017-.26523.19018-.4742-.00001-.2063-.0634-.36303-.19018-.4702-.12679-.10984-.31292-.16476-.5584-.16477h-.86186v1.26992zm.0526 2.62426c.31292 0 .5476-.06565.70407-.19693.15915-.13127.23873-.32953.23873-.59477 0-.25988-.07824-.45412-.23469-.58271-.15645-.13129-.39249-.19692-.70811-.19693h-.91446v1.57134zm1.44859-2.15807c.33449.09645.59345.27461.7769.53449.18342.25988.27514.5787.27515.95646-.00001.5787-.19694 1.01005-.59077 1.29404-.39384.28399-.9927.42598-1.79657.42598h-2.58559v-5.99999h2.33877c.83893.00001 1.44588.12593 1.82084.37776.37765.25185.56648.65506.56648 1.20964 0 .29204-.06878.5412-.20635.74749-.13758.20363-.3372.355-.59886.45413m.91657-2.78902h1.7035l1.37575 2.13798 1.37574-2.13798h1.70755l-2.30236 3.4722v2.52779h-1.55782v-2.52779zm5.32091 3.04622h2.54109v1.16945h-2.54109zm3.75903-3.04622h1.73992l2.19715 4.11521v-4.11521h1.47691v5.99999h-1.73992l-2.19716-4.1152v4.1152h-1.4769zm11.73433 5.67046c-.28594.14736-.58403.25854-.89424.33356-.31022.07501-.63392.11253-.97111.11253-1.00619 0-1.80331-.27864-2.39138-.83591-.58807-.55995-.8821-1.31815-.8821-2.27461 0-.95914.29403-1.71734.8821-2.27462.58807-.55994 1.38519-.83991 2.39138-.83992.33719.00001.66089.03752.97111.11252.31021.07503.6083.18622.89424.33356v1.2418c-.28864-.19557-.57323-.33891-.85377-.43001-.28056-.09109-.57593-.13663-.88615-.13663-.5557 0-.9927.17682-1.31101.53047s-.47747.84126-.47747 1.46283c0 .61889.15916 1.10516.47747 1.4588.31831.35366.75531.53048 1.31101.53048.31022 0 .60559-.04554.88615-.13664.28054-.09109.56513-.23443.85377-.43001zm1.17748-2.62424h2.54109v1.16945h-2.54109zm3.75903-3.04622h1.73991l2.19716 4.11521v-4.11521h1.47691v5.99999h-1.73993l-2.19714-4.1152v4.1152h-1.47691zm8.50132 1.16945v3.66109h.55839c.63661 0 1.12218-.15672 1.45667-.47019.33719-.31346.50579-.76892.5058-1.36638-.00001-.59477-.16725-1.04755-.50175-1.35834-.3345-.31078-.82141-.46617-1.46072-.46618zm-1.55784-1.16945h1.64281c.91716.00001 1.59964.06564 2.04744.19692.45048.1286.83623.3483 1.15725.65908.28324.27059.49364.58272.63122.93636.13757.35366.20636.75419.20637 1.20161-.00001.45279-.0688.85734-.20637 1.21366-.13758.35366-.34798.66578-.63122.93638-.32371.31078-.71216.53181-1.16535.66309-.45318.12859-1.13297.19289-2.03934.19289h-1.64281z" fill="#fff"/></g></svg>