<svg height="15" width="80" xmlns="http://www.w3.org/2000/svg" xmlns:xlink="http://www.w3.org/1999/xlink"><clipPath id="a"><path d="m171.99832 239.1203h20.614058v12.483703h-20.614058z"/></clipPath><g transform="matrix(.9875019 0 0 .9333518 -323.90064 -384.81244)"><path d="m328.5 412.86218h80v15h-80z" fill="#fff" stroke="#000" stroke-width="1.041618"/><path d="m330 414.36218h77v12h-77z"/><path d="m329.99996 414.36218v12h20.33478c1.30865-1.75031 2.19178-3.78448 2.19178-6 0-2.20074-.86793-4.25715-2.16053-6z" fill="#abb1aa"/><g clip-path="url(#a)" transform="matrix(.9612533 0 0 .9612533 164.83416 184.507)"><path cx="296.35416" cy="264.3577" d="m190.06417 245.36206c.0025 3.89199-3.15091 7.04866-7.04264 7.05117-3.89174.00249-7.04891-3.15067-7.05117-7.04263 0-.00277 0-.00553 0-.00854-.00226-3.89199 3.1509-7.04866 7.04264-7.05093 3.89224-.00249 7.04891 3.15068 7.05117 7.04267z" fill="#fff" rx="22.939548" ry="22.939548" type="arc"/><path d="m188.74576 239.62226c1.56267 1.56266 2.34412 3.47643 2.34412 5.7398 0 2.26386-.76791 4.15707-2.30373 5.67959-1.62988 1.60356-3.5562 2.40507-5.77893 2.40507-2.1959 0-4.08885-.795-5.67835-2.38498-1.58975-1.58976-2.38451-3.48948-2.38451-5.69968 0-2.20971.79476-4.12298 2.38451-5.7398 1.54912-1.56316 3.44207-2.34462 5.67835-2.34462 2.26338 0 4.1759.78145 5.73854 2.34462zm-10.36483 1.05129c-1.32115 1.33445-1.98148 2.89761-1.98148 4.69074 0 1.79265.65381 3.34253 1.96117 4.64964 1.3076 1.3076 2.86425 1.96116 4.67043 1.96116 1.80619 0 3.37611-.66007 4.71056-1.98097 1.26699-1.22687 1.90073-2.76945 1.90073-4.62983 0-1.8463-.64403-3.41345-1.93133-4.70075-1.28705-1.28705-2.84695-1.93084-4.67996-1.93084-1.83301.00001-3.38338.64705-4.65012 1.94085zm3.47668 3.90204c-.20188-.44014-.50407-.66034-.9071-.66034-.71249 0-1.06861.47976-1.06861 1.43879 0 .95924.35612 1.43851 1.06861 1.43851.47049 0 .80654-.23347 1.00818-.70144l.9876.5259c-.47074.83638-1.17695 1.25467-2.11866 1.25467-.72627 0-1.3081-.22269-1.74498-.66759-.43763-.44539-.65581-1.05932-.65581-1.84203 0-.76893.2252-1.37935.67587-1.8315.45067-.45218 1.01192-.67816 1.68479-.67816.99538 0 1.70811.39225 2.13897 1.17595zm4.64637 0c-.20214-.44014-.49831-.66034-.88881-.66034-.72678 0-1.09043.47976-1.09043 1.43879 0 .95924.36365 1.43851 1.09043 1.43851.47125 0 .80127-.23347.98963-.70144l1.00967.5259c-.46999.83638-1.17521 1.25467-2.11516 1.25467-.72528 0-1.30585-.22269-1.74248-.66759-.43587-.44539-.65429-1.05932-.65429-1.84203 0-.76893.22168-1.37935.66483-1.8315.44289-.45218 1.00667-.67816 1.69183-.67816.99362 0 1.70535.39225 2.1347 1.17595z"/></g><path d="m357.4197 419.68502c.24548 0 .43161-.05357.5584-.16075.12678-.10716.19017-.26523.19018-.47421-.00001-.20629-.0634-.36302-.19018-.47019-.12679-.10985-.31292-.16477-.5584-.16477h-.86186v1.26992zm.0526 2.62425c.31292 0 .5476-.06564.70407-.19692.15915-.13128.23873-.32954.23873-.59477 0-.25988-.07824-.45412-.23469-.58273-.15645-.13127-.39249-.19691-.70811-.19691h-.91446v1.57133zm1.44859-2.15807c.33449.09646.59345.27462.7769.5345.18342.25988.27514.5787.27515.95645-.00001.57871-.19694 1.01006-.59077 1.29404-.39384.284-.9927.42599-1.79657.42599h-2.58559v-5.99999h2.33877c.83893 0 1.44588.12593 1.82084.37775.37765.25185.56648.65507.56648 1.20965 0 .29203-.06878.5412-.20635.74749-.13758.20363-.3372.355-.59886.45412m.91657-2.78901h1.7035l1.37575 2.13797 1.37574-2.13797h1.70755l-2.30236 3.4722v2.52779h-1.55782v-2.52779zm5.32091 3.04621h2.54109v1.16945h-2.54109zm3.75903-3.04621h1.73992l2.19715 4.1152v-4.1152h1.47691v5.99999h-1.73992l-2.19716-4.1152v4.1152h-1.4769zm8.50132 1.16945v3.66109h.55839c.63662 0 1.12218-.15674 1.45668-.4702.33719-.31346.50578-.76892.50578-1.36637 0-.59478-.16725-1.04756-.50174-1.35834-.3345-.31078-.8214-.46618-1.46072-.46618zm-1.55783-1.16945h1.6428c.91716 0 1.59964.06564 2.04744.19691.45049.12861.83623.3483 1.15725.65908.28323.2706.49364.58272.63122.93637.13757.35365.20636.75419.20637 1.20161-.00001.45278-.0688.85733-.20637 1.21366-.13758.35365-.34799.66577-.63122.93638-.32372.31077-.71216.5318-1.16534.66308-.4532.1286-1.13297.1929-2.03935.1929h-1.6428z" fill="#fff"/></g></svg>