<svg height="15" width="80" xmlns="http://www.w3.org/2000/svg" xmlns:xlink="http://www.w3.org/1999/xlink"><clipPath id="a"><path d="m171.99832 239.1203h20.614058v12.483703h-20.614058z"/></clipPath><g transform="matrix(.9875019 0 0 .9333518 -323.90064 -356.81188)"><g transform="translate(158 145)"><path d="m170.5 237.86218h80v15h-80z" fill="#fff" stroke="#000" stroke-width="1.041618"/><path d="m172 239.36218h77v12h-77z"/><path d="m171.99996 239.37505v12h20.33478c1.30865-1.75031 2.19178-3.78448 2.19178-6 0-2.20074-.86793-4.25715-2.16053-6z" fill="#abb1aa"/><g clip-path="url(#a)" transform="matrix(.9612533 0 0 .9612533 6.834157 9.506999)"><path cx="296.35416" cy="264.3577" d="m190.06417 245.36206c.0025 3.89199-3.15091 7.04866-7.04264 7.05117-3.89174.00249-7.04891-3.15067-7.05117-7.04263 0-.00277 0-.00553 0-.00854-.00226-3.89199 3.1509-7.04866 7.04264-7.05093 3.89224-.00249 7.04891 3.15068 7.05117 7.04267z" fill="#fff" rx="22.939548" ry="22.939548" type="arc"/><path d="m188.74576 239.62226c1.56267 1.56266 2.34412 3.47643 2.34412 5.7398 0 2.26386-.76791 4.15707-2.30373 5.67959-1.62988 1.60356-3.5562 2.40507-5.77893 2.40507-2.1959 0-4.08885-.795-5.67835-2.38498-1.58975-1.58976-2.38451-3.48948-2.38451-5.69968 0-2.20971.79476-4.12298 2.38451-5.7398 1.54912-1.56316 3.44207-2.34462 5.67835-2.34462 2.26338 0 4.1759.78145 5.73854 2.34462zm-10.36483 1.05129c-1.32115 1.33445-1.98148 2.89761-1.98148 4.69074 0 1.79265.65381 3.34253 1.96117 4.64964 1.3076 1.3076 2.86425 1.96116 4.67043 1.96116 1.80619 0 3.37611-.66007 4.71056-1.98097 1.26699-1.22687 1.90073-2.76945 1.90073-4.62983 0-1.8463-.64403-3.41345-1.93133-4.70075-1.28705-1.28705-2.84695-1.93084-4.67996-1.93084-1.83301.00001-3.38338.64705-4.65012 1.94085zm3.47668 3.90204c-.20188-.44014-.50407-.66034-.9071-.66034-.71249 0-1.06861.47976-1.06861 1.43879 0 .95924.35612 1.43851 1.06861 1.43851.47049 0 .80654-.23347 1.00818-.70144l.9876.5259c-.47074.83638-1.17695 1.25467-2.11866 1.25467-.72627 0-1.3081-.22269-1.74498-.66759-.43763-.44539-.65581-1.05932-.65581-1.84203 0-.76893.2252-1.37935.67587-1.8315.45067-.45218 1.01192-.67816 1.68479-.67816.99538 0 1.70811.39225 2.13897 1.17595zm4.64637 0c-.20214-.44014-.49831-.66034-.88881-.66034-.72678 0-1.09043.47976-1.09043 1.43879 0 .95924.36365 1.43851 1.09043 1.43851.47125 0 .80127-.23347.98963-.70144l1.00967.5259c-.46999.83638-1.17521 1.25467-2.11516 1.25467-.72528 0-1.30585-.22269-1.74248-.66759-.43587-.44539-.65429-1.05932-.65429-1.84203 0-.76893.22168-1.37935.66483-1.8315.44289-.45218 1.00667-.67816 1.69183-.67816.99362 0 1.70535.39225 2.1347 1.17595z"/></g></g><path d="m357.4197 389.68502c.24548 0 .43161-.05358.5584-.16075.12678-.10717.19017-.26523.19018-.47422-.00001-.20629-.0634-.36302-.19018-.47019-.12679-.10984-.31292-.16476-.5584-.16477h-.86186v1.26993zm.0526 2.62424c.31292 0 .5476-.06563.70407-.19691.15915-.13128.23873-.32954.23873-.59479 0-.25987-.07824-.45411-.23469-.58271-.15645-.13128-.39249-.19692-.70811-.19692h-.91446v1.57133zm1.44859-2.15807c.33449.09645.59345.27462.7769.53449.18342.25989.27514.57871.27515.95647-.00001.57871-.19694 1.01005-.59077 1.29404-.39384.28399-.9927.42599-1.79657.42599h-2.58559v-6h2.33877c.83893 0 1.44588.12592 1.82084.37776.37765.25184.56648.65506.56648 1.20965 0 .29203-.06878.54119-.20635.74749-.13758.20361-.3372.35498-.59886.45411m.91657-2.78901h1.7035l1.37575 2.13797 1.37574-2.13797h1.70755l-2.30236 3.4722v2.5278h-1.55782v-2.5278zm5.32091 3.04621h2.54109v1.16946h-2.54109zm7.96316-2.85734v1.26994c-.3318-.14736-.65551-.25854-.97111-.33356-.31562-.07502-.61371-.11253-.89424-.11253-.37227 0-.64741.05091-.82545.15271-.17805.10182-.26706.25989-.26706.47422 0 .16076.05934.28668.17803.37776.1214.08842.33989.16477.65551.22907l.6636.13261c.67168.13397 1.14915.33759 1.43239.61086.28324.27328.42486.66176.42487 1.16543-.00001.66177-.19827 1.15473-.59481 1.47891-.39385.3215-.99675.48225-1.80871.48225-.38305 0-.76745-.03617-1.15319-.10851-.38576-.07233-.77151-.17951-1.15725-.3215v-1.30609c.38574.20362.758.35767 1.11678.46215.36147.10181.70945.15272 1.04395.15272.33989 0 .6002-.05626.78094-.16879.18073-.11252.2711-.27328.2711-.48225 0-.18754-.06204-.33222-.18612-.43403-.1214-.1018-.36553-.1929-.73239-.27327l-.6029-.13262c-.60425-.1286-1.04665-.33356-1.3272-.61487-.27785-.28131-.41677-.66041-.41677-1.13731 0-.59744.19422-1.05692.58268-1.37843.38844-.3215.94683-.48225 1.67517-.48225.3318 0 .67303.02545 1.02372.07636.35067.04823.71349.1219 1.08846.22102m5.4342 4.71802h-2.43588l-.3844 1.09311h-1.56592l2.23761-6h1.85726l2.23761 6h-1.56592zm-2.04743-1.11319h1.65494l-.82544-2.38714z" fill="#fff"/></g></svg>