<svg enable-background="new 0 0 80 15" height="15" viewBox="0 0 80 15" width="80" xmlns="http://www.w3.org/2000/svg"><path d="m0 0h80v15h-80z" fill="#fff"/><path d="m22.797 2c1.003 1.595 1.593 3.477 1.593 5.501 0 2.023-.589 3.904-1.592 5.499h57.202v-11z"/><path d="m12.42 2.031c-3.137 0-3.926 2.959-3.926 5.469s.787 5.469 3.926 5.469c3.137 0 3.924-2.959 3.924-5.469s-.787-5.469-3.924-5.469zm0 2.063c.127 0 .242.02.352.047.227.193.336.463.121.838l-2.09 3.838c-.065-.487-.074-.962-.074-1.317 0-1.105.078-3.406 1.691-3.406zm1.562 1.769c.111.588.127 1.203.127 1.637 0 1.105-.076 3.406-1.689 3.406-.127 0-.244-.012-.354-.039-.02-.006-.039-.014-.061-.021-.031-.01-.066-.02-.098-.031-.359-.154-.586-.43-.26-.92z"/><path d="m21.229 3.848c-.465-1.152-1.143-2.172-2.035-3.066-.287-.286-.587-.541-.892-.782h-3.708c1.248.348 2.367 1.009 3.354 1.998.736.736 1.299 1.576 1.684 2.516s.578 1.936.578 2.986c0 2.184-.746 3.994-2.227 5.441-.771.746-1.635 1.32-2.596 1.717-.344.143-.694.251-1.046.342h3.892c.336-.257.664-.529.972-.834.895-.871 1.57-1.871 2.021-3 .465-1.143.693-2.363.693-3.666.001-1.289-.228-2.51-.69-3.652zm-14.272 9.127c-.746-.746-1.322-1.59-1.729-2.527-.396-.951-.6-1.93-.6-2.947 0-1.029.203-2.016.6-2.955.406-.949.982-1.803 1.729-2.561.959-.981 2.064-1.639 3.311-1.985h-3.688c-.291.235-.576.484-.848.762-.916.914-1.615 1.959-2.101 3.125-.475 1.154-.711 2.357-.711 3.613 0 1.268.236 2.471.711 3.613s1.164 2.17 2.068 3.086c.295.291.606.553.924.801h3.88c-.345-.088-.686-.191-1.019-.328-.937-.395-1.779-.961-2.527-1.697z"/><path d="m80 0v15h-80v-15zm-.75.75h-78.5v13.5h78.5z"/><g fill="#fff"><path d="m30.514 8.106c-.279.233-.678.35-1.197.35h-.993v1.717h-.991v-4.775h2.05c.473 0 .849.123 1.13.369s.422.628.422 1.144c-.001.564-.141.962-.421 1.195zm-.761-1.719c-.127-.106-.304-.159-.531-.159h-.898v1.406h.898c.228 0 .404-.058.531-.172.126-.114.189-.296.189-.544 0-.249-.063-.426-.189-.531z"/><path d="m31.733 5.398h1.015v2.933c0 .328.038.567.116.718.12.268.383.401.787.401.402 0 .664-.134.784-.401.077-.15.116-.39.116-.718v-2.933h1.014v2.935c0 .508-.079.902-.236 1.186-.293.519-.853.777-1.678.777-.826 0-1.387-.259-1.682-.777-.157-.283-.236-.678-.236-1.186z"/><path d="m40.085 5.907c.146.203.219.446.219.729 0 .292-.074.526-.221.703-.083.1-.204.19-.364.272.243.088.427.229.551.421s.187.425.187.699c0 .283-.071.537-.213.761-.09.149-.203.274-.338.376-.152.117-.332.196-.539.24-.208.043-.433.064-.675.064h-2.152v-4.774h2.308c.582.009.994.179 1.237.509zm-2.593.321v1.052h1.16c.208 0 .376-.039.505-.118.13-.079.194-.219.194-.419 0-.223-.086-.369-.257-.44-.147-.05-.335-.075-.563-.075zm0 1.842v1.273h1.159c.207 0 .368-.028.483-.084.209-.104.313-.303.313-.597 0-.248-.101-.419-.304-.512-.112-.05-.271-.077-.476-.08z"/><path d="m41.313 5.398h.998v3.916h2.384v.858h-3.382z"/><path d="m46.275 10.173h-.991v-4.775h.991z"/><path d="m47.665 5.897c.385-.393.874-.59 1.468-.59.795 0 1.376.264 1.743.791.203.296.312.593.327.891h-.998c-.063-.229-.145-.402-.244-.519-.178-.207-.441-.311-.79-.311-.355 0-.636.146-.841.438s-.308.707-.308 1.242.108.937.324 1.203c.217.267.492.4.826.4.342 0 .603-.114.782-.344.1-.123.182-.308.247-.554h.991c-.086.521-.304.943-.655 1.27s-.802.489-1.351.489c-.68 0-1.214-.221-1.603-.661-.389-.442-.583-1.049-.583-1.82.002-.831.224-1.473.665-1.925z"/><path d="m54.797 5.502c.335.11.606.312.813.606.167.237.28.494.341.771s.091.54.091.79c0 .635-.128 1.173-.383 1.613-.346.594-.88.891-1.602.891h-2.059v-4.775h2.059c.297.005.544.04.74.104zm-1.829.726v3.116h.922c.471 0 .8-.232.985-.696.102-.255.152-.559.152-.91 0-.486-.076-.859-.229-1.119s-.455-.391-.909-.391z"/><path d="m60.466 9.749c-.36.371-.882.557-1.564.557s-1.204-.186-1.564-.557c-.483-.456-.726-1.112-.726-1.97 0-.875.242-1.531.726-1.97.36-.371.882-.557 1.564-.557s1.204.186 1.564.557c.481.438.722 1.095.722 1.97 0 .858-.241 1.514-.722 1.97zm-.624-.726c.232-.292.349-.706.349-1.244 0-.535-.116-.949-.349-1.242-.231-.293-.545-.438-.94-.438s-.711.146-.946.437c-.235.292-.353.706-.353 1.244s.117.952.353 1.244c.235.291.551.437.946.437s.708-.147.94-.438z"/><path d="m65.116 5.398h1.436v4.774h-.929v-3.229c0-.093.001-.223.003-.39.002-.168.003-.297.003-.388l-.904 4.007h-.97l-.898-4.007c0 .091.001.22.003.388.003.167.004.297.004.39v3.229h-.93v-4.774h1.451l.869 3.754z"/><path d="m68.84 5.398h1.129l1.689 4.774h-1.082l-.314-.981h-1.759l-.323.981h-1.044zm-.066 2.971h1.223l-.602-1.879z"/><path d="m73.175 10.173h-.991v-4.775h.991z"/><path d="m74.093 5.398h1.046l1.895 3.329v-3.329h.93v4.774h-.997l-1.943-3.388v3.388h-.93v-4.774z"/></g></svg>