<svg height="15" width="80" xmlns="http://www.w3.org/2000/svg" xmlns:xlink="http://www.w3.org/1999/xlink"><clipPath id="a"><path d="m171.99832 239.1203h20.614058v12.483703h-20.614058z"/></clipPath><g transform="matrix(.9875019 0 0 .9333518 -323.90064 -331.6114)"><g transform="translate(158 118)"><path d="m170.5 237.86218h80v15h-80z" fill="#fff" stroke="#000" stroke-width="1.041618"/><path d="m172 239.36218h77v12h-77z"/><path d="m171.99996 239.37505v12h20.33478c1.30865-1.75031 2.19178-3.78448 2.19178-6 0-2.20074-.86793-4.25715-2.16053-6z" fill="#abb1aa"/><g clip-path="url(#a)" transform="matrix(.9612533 0 0 .9612533 6.834157 9.506999)"><path cx="296.35416" cy="264.3577" d="m190.06417 245.36206c.0025 3.89199-3.15091 7.04866-7.04264 7.05117-3.89174.00249-7.04891-3.15067-7.05117-7.04263 0-.00277 0-.00553 0-.00854-.00226-3.89199 3.1509-7.04866 7.04264-7.05093 3.89224-.00249 7.04891 3.15068 7.05117 7.04267z" fill="#fff" rx="22.939548" ry="22.939548" type="arc"/><path d="m188.74576 239.62226c1.56267 1.56266 2.34412 3.47643 2.34412 5.7398 0 2.26386-.76791 4.15707-2.30373 5.67959-1.62988 1.60356-3.5562 2.40507-5.77893 2.40507-2.1959 0-4.08885-.795-5.67835-2.38498-1.58975-1.58976-2.38451-3.48948-2.38451-5.69968 0-2.20971.79476-4.12298 2.38451-5.7398 1.54912-1.56316 3.44207-2.34462 5.67835-2.34462 2.26338 0 4.1759.78145 5.73854 2.34462zm-10.36483 1.05129c-1.32115 1.33445-1.98148 2.89761-1.98148 4.69074 0 1.79265.65381 3.34253 1.96117 4.64964 1.3076 1.3076 2.86425 1.96116 4.67043 1.96116 1.80619 0 3.37611-.66007 4.71056-1.98097 1.26699-1.22687 1.90073-2.76945 1.90073-4.62983 0-1.8463-.64403-3.41345-1.93133-4.70075-1.28705-1.28705-2.84695-1.93084-4.67996-1.93084-1.83301.00001-3.38338.64705-4.65012 1.94085zm3.47668 3.90204c-.20188-.44014-.50407-.66034-.9071-.66034-.71249 0-1.06861.47976-1.06861 1.43879 0 .95924.35612 1.43851 1.06861 1.43851.47049 0 .80654-.23347 1.00818-.70144l.9876.5259c-.47074.83638-1.17695 1.25467-2.11866 1.25467-.72627 0-1.3081-.22269-1.74498-.66759-.43763-.44539-.65581-1.05932-.65581-1.84203 0-.76893.2252-1.37935.67587-1.8315.45067-.45218 1.01192-.67816 1.68479-.67816.99538 0 1.70811.39225 2.13897 1.17595zm4.64637 0c-.20214-.44014-.49831-.66034-.88881-.66034-.72678 0-1.09043.47976-1.09043 1.43879 0 .95924.36365 1.43851 1.09043 1.43851.47125 0 .80127-.23347.98963-.70144l1.00967.5259c-.46999.83638-1.17521 1.25467-2.11516 1.25467-.72528 0-1.30585-.22269-1.74248-.66759-.43587-.44539-.65429-1.05932-.65429-1.84203 0-.76893.22168-1.37935.66483-1.8315.44289-.45218 1.00667-.67816 1.69183-.67816.99362 0 1.70535.39225 2.1347 1.17595z"/></g></g><path d="m357.4197 362.68502c.24548 0 .43161-.05358.5584-.16075.12678-.10716.19017-.26523.19018-.47422-.00001-.20628-.0634-.36301-.19018-.47019-.12679-.10984-.31292-.16476-.5584-.16476h-.86186v1.26992zm.0526 2.62424c.31292 0 .5476-.06563.70407-.19691.15915-.13128.23873-.32954.23873-.59477 0-.25988-.07824-.45412-.23469-.58273-.15645-.13127-.39249-.19692-.70811-.19692h-.91446v1.57133zm1.44859-2.15807c.33449.09646.59345.27462.7769.5345.18342.25988.27514.5787.27515.95646-.00001.57871-.19694 1.01005-.59077 1.29404-.39384.284-.9927.42599-1.79657.42599h-2.58559v-6h2.33877c.83893 0 1.44588.12593 1.82084.37776.37765.25185.56648.65507.56648 1.20965 0 .29203-.06878.54119-.20635.74749-.13758.20362-.3372.35499-.59886.45411m.91657-2.78901h1.7035l1.37575 2.13798 1.37574-2.13798h1.70755l-2.30236 3.4722v2.5278h-1.55782v-2.5278zm5.32091 3.04621h2.54109v1.16946h-2.54109zm3.75903-3.04621h1.73992l2.19715 4.1152v-4.1152h1.47691v6h-1.73992l-2.19716-4.1152v4.1152h-1.4769zm11.73433 5.67046c-.28594.14735-.58403.25854-.89424.33356-.31022.07502-.63392.11252-.97111.11252-1.00619 0-1.80331-.27863-2.39138-.8359-.58807-.55994-.8821-1.31814-.8821-2.27461 0-.95914.29403-1.71734.8821-2.27461.58807-.55994 1.38519-.83992 2.39138-.83993.33719.00001.66089.03752.97111.11253.31021.07502.6083.18621.89424.33356v1.2418c-.28864-.19559-.57323-.33891-.85377-.43001-.28056-.09109-.57593-.13663-.88615-.13664-.5557.00001-.9927.17683-1.31101.53047-.31831.35366-.47747.84127-.47747 1.46283 0 .61889.15916 1.10516.47747 1.45881s.75531.53047 1.31101.53047c.31022 0 .60559-.04554.88615-.13663.28054-.0911.56513-.23443.85377-.43001zm1.17748-2.62425h2.54109v1.16946h-2.54109zm7.96315-2.85732v1.26992c-.3318-.14735-.6555-.25854-.97111-.33356-.31562-.07501-.61369-.11251-.89424-.11252-.37226.00001-.64741.0509-.82545.15271s-.26706.25988-.26705.47421c-.00001.16076.05934.28668.17804.37777.12138.08841.33989.16477.65549.22906l.66361.13263c.67168.13396 1.14915.33757 1.4324.61085.28323.27327.42485.66175.42486 1.16544-.00001.66175-.19828 1.15471-.59481 1.47889-.39385.3215-.99675.48225-1.80871.48225-.38305 0-.76745-.03617-1.1532-.1085-.38575-.07234-.7715-.1795-1.15725-.32151v-1.30609c.38575.20362.75801.35767 1.11679.46216.36147.1018.70945.15271 1.04394.15271.33989 0 .60021-.05626.78095-.16878.18073-.11253.27109-.27328.2711-.48225-.00001-.18755-.06205-.33222-.18613-.43404-.1214-.1018-.36552-.19288-.73238-.27327l-.60291-.13262c-.60425-.1286-1.04665-.33355-1.32719-.61486-.27784-.28132-.41677-.66042-.41677-1.13732 0-.59744.19422-1.05692.58267-1.37843.38845-.32149.94684-.48224 1.67518-.48225.33179.00001.67303.02547 1.02372.07636.35068.04823.71349.12191 1.08845.22104m5.43421 4.71801h-2.43588l-.3844 1.0931h-1.56592l2.23761-6h1.85726l2.23762 6h-1.56593zm-2.04743-1.1132h1.65495l-.82546-2.38713z" fill="#fff"/></g></svg>